# xmcd CD database file
#
# Track frame offsets:
#	150
#	22725
#	48570
#	68825
#	87600
#	106035
#	125420
#	150677
#	170417
#
# Disc length: 2316 seconds
#
# Revision: 0
# Processed by: cddbd v1.5.1PL0 Copyright (c) Steve Scherf et al.
# Submitted via: CDex 1.51
#
DISCID=6b090a09
DTITLE=The 24th Street Band - Share Your Dreams
DYEAR=1995
DGENRE=Fusion
TTITLE0=The New York City Strut
TTITLE1=Not Too Much To Give
TTITLE2=Tall Handsome Man
TTITLE3=Share Your Dreams
TTITLE4=Back In Your Dreams Again
TTITLE5=Tryin' To Make Up For Lost Time
TTITLE6=Ricky And The Radio
TTITLE7=Lovers Again
TTITLE8=The Black Hole Strut
EXTD=YEAR: 1995
EXTT0=
EXTT1=
EXTT2=
EXTT3=
EXTT4=
EXTT5=
EXTT6=
EXTT7=
EXTT8=
PLAYORDER=
